<svg width="30" height="76" viewBox="0 0 30 76" fill="none" xmlns="http://www.w3.org/2000/svg">
<path d="M24.5897 27.2892L20.4531 29.8869V22.6132L24.5897 19.2318V27.2892Z" fill="#11706C"/>
<path d="M20.4531 22.6132L11.9287 17.5086V11.4386L24.594 19.2318L20.4531 22.6132Z" fill="#65E2DD"/>
<path d="M24.5897 27.2893L29.9348 30.6707L25.7982 33.2684L20.4531 29.887L24.5897 27.2893Z" fill="#25B5AF"/>
<path d="M11.9287 42.8929L18.0101 46.7808L23.8577 43.1526L11.9287 35.6062V42.8929Z" fill="#65E2DD"/>
<path d="M18.0104 46.781V53.284L5.84752 60.8175V0L0 3.6455V71.9964L23.8535 57.4361V43.1528L18.0104 46.781Z" fill="#D6FFFD"/>
<path d="M0 71.7324L6.08142 75.6377L29.935 61.0773L23.8536 57.1894L0 71.7324Z" fill="#11706C"/>
<path d="M29.935 61.0772V39.7714L11.929 28.5925V11.4387L24.5943 19.232V27.2893L30 30.7486L29.9394 15.0842L5.84758 0V61.0772L11.929 57.0507V35.6064L23.8579 43.1528V57.1893L29.935 61.0772Z" fill="#3CCCC6"/>
</svg>
